<?xml version="1.0" standalone="no"?>
<!DOCTYPE svg PUBLIC "-//W3C//DTD SVG 20010904//EN"
 "http://www.w3.org/TR/2001/REC-SVG-20010904/DTD/svg10.dtd">
<svg version="1.0" xmlns="http://www.w3.org/2000/svg"
 width="700.000000pt" height="700.000000pt" viewBox="0 0 700.000000 700.000000"
 preserveAspectRatio="xMidYMid meet">
<metadata>
Created by potrace 1.11, written by Peter Selinger 2001-2013
</metadata>
<g transform="translate(0.000000,700.000000) scale(0.100000,-0.100000)"
fill="#000000" stroke="none">
<path d="M684 5875 c-2 -5 -2 -1056 -1 -2334 l2 -2324 1035 0 1035 0 0 329 0
329 -465 2 c-256 1 -564 3 -685 3 l-221 0 1 1996 c0 1098 -2 1999 -5 2003 -8
12 -692 8 -696 -4z"/>
<path d="M2510 5875 c0 -6 23 -67 51 -136 67 -164 277 -679 346 -849 30 -74
84 -207 120 -295 35 -88 70 -173 78 -190 7 -16 37 -88 65 -160 53 -133 152
-376 175 -430 21 -49 228 -557 299 -735 37 -91 71 -174 76 -185 5 -11 20 -47
33 -80 14 -33 68 -168 122 -300 53 -132 103 -253 110 -270 7 -16 28 -66 45
-110 17 -44 37 -93 45 -110 13 -31 22 -52 208 -510 63 -154 147 -362 188 -462
45 -110 77 -176 81 -168 4 7 55 127 114 266 58 140 112 268 119 284 8 17 74
176 148 355 210 506 317 762 332 795 7 17 34 82 60 145 26 63 53 129 60 145 8
17 42 98 75 180 34 83 70 168 80 190 10 22 61 146 115 275 90 219 210 506 240
575 7 17 63 152 124 300 62 149 116 279 121 290 22 51 81 191 245 585 169 407
211 507 241 577 8 17 14 33 14 35 0 2 -172 4 -382 3 l-381 0 -20 -35 c-11 -19
-19 -35 -18 -35 4 0 -75 -202 -129 -330 -5 -11 -43 -105 -85 -210 -42 -104
-80 -199 -85 -210 -5 -11 -43 -105 -85 -210 -42 -104 -82 -203 -89 -220 -7
-16 -19 -46 -26 -65 -7 -19 -24 -59 -37 -88 -12 -29 -23 -54 -23 -57 0 -2 -54
-138 -121 -302 -66 -164 -165 -410 -220 -548 -56 -137 -107 -263 -114 -280
-13 -31 -242 -595 -254 -628 -7 -18 -60 111 -648 1588 -118 297 -221 554 -228
570 -7 17 -97 242 -200 500 -102 259 -192 484 -199 500 -8 17 -16 37 -18 45
-4 13 -56 15 -386 15 -273 1 -382 -2 -382 -10z"/>
</g>
</svg>
